<svg xmlns="http://www.w3.org/2000/svg" fill="none" viewBox="0 0 23 34"><path fill="#1284F0" stroke="#fff" stroke-width="0.5" d="M21.098 18.219h.153l.07-.137c.856-1.683 1.132-4.12 1.132-6.354 0-5.837-4.817-10.561-10.75-10.561S.953 5.891.953 11.727c0 2.26.56 4.677 1.119 6.322l.057.17h.18c2.448 0 4.56.54 6.083 2.655 1.54 2.14 2.508 5.933 2.508 12.543v.25h2.158v-.25c0-5.374.555-9.183 1.837-11.643.638-1.223 1.453-2.107 2.467-2.687 1.016-.581 2.248-.868 3.736-.868Z"></path><path fill="#1284F0" fill-rule="evenodd" d="M22.203 11.728c0 2.225-.276 4.612-1.105 6.24H2.308c-.552-1.628-1.105-4.015-1.105-6.24 0-5.695 4.701-10.311 10.5-10.311s10.5 4.616 10.5 10.31m-19.895 6.24c4.974 0 8.843 2.208 8.843 15.449h1.657c0-10.759 2.21-15.448 8.29-15.448z" clip-rule="evenodd"></path></svg>