<svg xmlns="http://www.w3.org/2000/svg" fill="none" viewBox="0 0 23 34"><path fill="#E22609" stroke="#fff" stroke-width="0.5" d="M20.895 17.802h.153l.07-.137c.856-1.683 1.132-4.12 1.132-6.354C22.25 5.474 17.433.75 11.5.75S.75 5.474.75 11.31c0 2.26.56 4.677 1.119 6.322l.057.17h.18c2.448 0 4.56.54 6.083 2.655 1.54 2.14 2.508 5.933 2.508 12.543v.25h2.158V33c0-5.374.554-9.183 1.837-11.643.638-1.223 1.453-2.107 2.467-2.687 1.015-.581 2.248-.868 3.736-.868Z"></path><path fill="#E22609" fill-rule="evenodd" d="M22 11.31c0 2.226-.276 4.614-1.105 6.242H2.105C1.552 15.924 1 13.536 1 11.31 1 5.616 5.701 1 11.5 1S22 5.616 22 11.31M2.105 17.553c4.974 0 8.842 2.207 8.842 15.448h1.658c0-10.759 2.21-15.448 8.29-15.448z" clip-rule="evenodd"></path></svg>